<svg xmlns="http://www.w3.org/2000/svg" viewBox="0 0 402 874" fill="none" width="402" height="874" preserveAspectRatio="xMidYMid slice" aria-hidden="true"><g class="nb-decor-drift-a"><path d="M377.229 140.863C377.642 138.422 380.391 137.17 382.504 138.46L470.979 192.477C473.375 193.94 473.16 197.487 470.606 198.65L364.813 246.838C362.259 248.001 359.442 245.835 359.911 243.068L377.229 140.863Z" fill="black" stroke="black" stroke-width="3" />
<path d="M374.229 137.863C374.642 135.422 377.391 134.17 379.504 135.46L467.979 189.477C470.375 190.94 470.16 194.487 467.606 195.65L361.813 243.838C359.259 245.001 356.442 242.835 356.911 240.068L374.229 137.863Z" fill="#70CDDE" stroke="black" stroke-width="3" />
</g><g class="nb-decor-drift-b"><path d="M363.533 295.047L331.628 405.533L221.143 373.628L253.048 263.143L363.533 295.047Z" fill="black" stroke="black" stroke-width="3" />
<path d="M360.533 292.047L328.628 402.533L218.143 370.628L250.048 260.143L360.533 292.047Z" fill="#ED73C2" stroke="black" stroke-width="3" />
<path d="M55.6673 275.25C69.7506 299.643 67.1673 295.169 81.1673 319.417C56.7744 333.501 25.5833 325.143 11.5 300.75C-2.58326 276.357 5.77437 245.166 30.1673 231.083C46.4173 259.229 41.584 250.857 55.6673 275.25Z" fill="#6CBD45" />
<path d="M96.0837 344.832L17.0837 208" stroke="black" stroke-width="3" stroke-linecap="round" />
<path d="M85.1449 143.849C73.6349 146.481 68.5476 167.932 72.4955 185.197C68.5476 167.932 54.6434 150.824 43.1334 153.456C54.6434 150.824 59.7307 129.373 55.7828 112.108C59.7307 129.373 73.6349 146.481 85.1449 143.849Z" fill="black" stroke="black" stroke-width="3" stroke-linejoin="round" />
<path d="M84.3678 143.544C72.8578 146.176 67.7705 167.627 71.7184 184.892C67.7705 167.627 53.8663 150.519 42.3563 153.151C53.8663 150.519 58.9536 129.068 55.0057 111.803C58.9536 129.068 72.8578 146.176 84.3678 143.544Z" fill="#FFB802" stroke="black" stroke-width="3" stroke-linejoin="round" />
<path d="M103.458 110.68C95.4671 112.507 91.9341 127.399 94.6741 139.386C91.9341 127.399 82.2817 115.521 74.2906 117.347C82.2817 115.521 85.8148 100.629 83.0748 88.6418C85.8148 100.629 95.4671 112.507 103.458 110.68Z" fill="black" stroke="black" stroke-width="3" stroke-linejoin="round" />
<path d="M102.967 110.372C94.9762 112.198 91.4431 127.091 94.1831 139.077C91.4431 127.091 81.7908 115.212 73.7996 117.039C81.7908 115.212 85.3238 100.32 82.5838 88.3336C85.3238 100.32 94.9762 112.198 102.967 110.372Z" fill="#FFB802" stroke="black" stroke-width="3" stroke-linejoin="round" />
<path d="M367.088 396.735C366.993 392.377 372.529 390.443 375.168 393.912L394.868 419.815C395.261 420.332 395.943 420.538 396.557 420.324L427.28 409.592C431.395 408.155 434.946 412.823 432.461 416.405L413.914 443.145C413.543 443.679 413.559 444.391 413.952 444.908L433.653 470.811C436.291 474.281 432.948 479.1 428.774 477.845L397.611 468.468C396.989 468.281 396.316 468.516 395.946 469.049L377.398 495.79C374.914 499.372 369.298 497.682 369.202 493.324L368.49 460.788C368.475 460.138 368.044 459.572 367.422 459.385L336.259 450.009C332.085 448.753 331.957 442.888 336.072 441.451L366.795 430.72C367.408 430.505 367.814 429.92 367.8 429.27L367.088 396.735Z" fill="black" stroke="black" stroke-width="3" />
<path d="M363.819 395.214C363.724 390.856 369.26 388.922 371.899 392.392L391.599 418.294C391.992 418.811 392.674 419.017 393.288 418.803L424.01 408.071C428.126 406.634 431.677 411.302 429.192 414.884L410.645 441.624C410.274 442.158 410.29 442.87 410.683 443.387L430.384 469.291C433.022 472.76 429.679 477.579 425.505 476.324L394.342 466.947C393.72 466.76 393.047 466.995 392.677 467.529L374.129 494.269C371.645 497.851 366.029 496.161 365.933 491.803L365.221 459.267C365.206 458.617 364.775 458.051 364.153 457.864L332.99 448.488C328.816 447.232 328.688 441.368 332.803 439.93L363.526 429.199C364.139 428.984 364.545 428.399 364.531 427.749L363.819 395.214Z" fill="#FFB802" stroke="black" stroke-width="3" />
</g><g class="nb-decor-drift-c"><path d="M373 197V89" stroke="black" stroke-width="3" stroke-linecap="round" />
<path d="M395 197V89" stroke="black" stroke-width="3" stroke-linecap="round" />
<path d="M331 197V89" stroke="black" stroke-width="3" stroke-linecap="round" />
<path d="M353 197V89" stroke="black" stroke-width="3" stroke-linecap="round" />
<path d="M309 112H418" stroke="black" stroke-width="3" stroke-linecap="round" />
<path d="M309 133H418" stroke="black" stroke-width="3" stroke-linecap="round" />
<path d="M309 153H418" stroke="black" stroke-width="3" stroke-linecap="round" />
<path d="M306 174H415" stroke="black" stroke-width="3" stroke-linecap="round" />
<path d="M-12.9722 315.997L123.86 236.997" stroke="black" stroke-width="3" stroke-linecap="round" />
</g><g class="nb-decor-drift-d"><path d="M61.5273 752.64C63.7161 751.483 66.3822 752.902 66.6441 755.364L77.6129 858.444C77.9099 861.235 74.9648 863.223 72.4871 861.903L-30.1254 807.271C-32.603 805.952 -32.598 802.398 -30.1165 801.086L61.5273 752.64Z" fill="black" stroke="black" stroke-width="3" />
<path d="M62.0825 748.434C64.2713 747.277 66.9373 748.696 67.1993 751.158L78.168 854.237C78.465 857.029 75.5199 859.016 73.0423 857.697L-29.5702 803.065C-32.0479 801.745 -32.0428 798.192 -29.5613 796.88L62.0825 748.434Z" fill="#7088FE" stroke="black" stroke-width="3" />
</g><g class="nb-decor-drift-e"><path d="M270.005 862.841C275.327 864.129 274.167 872.008 268.7 871.708L210.188 868.494C209.669 868.465 209.172 868.707 208.875 869.134L174.623 918.374C171.527 922.824 164.656 919.012 166.793 914.03L194.898 848.521C195.764 846.503 197.959 845.404 200.093 845.921L270.005 862.841ZM253.657 828.533C258.979 829.822 257.819 837.7 252.351 837.4L193.84 834.185C193.321 834.156 192.823 834.399 192.526 834.826L158.275 884.064C155.179 888.515 148.308 884.703 150.445 879.721L178.55 814.212C179.416 812.194 181.61 811.096 183.744 811.613L253.657 828.533ZM236.844 796.144C242.166 797.432 241.006 805.311 235.539 805.011L177.028 801.796C176.508 801.767 176.011 802.01 175.714 802.437L141.462 851.676C138.366 856.126 131.495 852.314 133.633 847.332L161.738 781.822C162.604 779.805 164.798 778.707 166.931 779.223L236.844 796.144Z" fill="black" stroke="black" stroke-width="3" stroke-linejoin="round" />
<path d="M267.794 859.22C273.117 860.508 271.957 868.387 266.49 868.087L207.978 864.872C207.458 864.844 206.962 865.086 206.664 865.513L172.413 914.752C169.317 919.202 162.445 915.39 164.582 910.408L192.688 844.899C193.553 842.882 195.749 841.783 197.882 842.299L267.794 859.22ZM251.447 824.912C256.769 826.2 255.609 834.079 250.141 833.778L191.63 830.563C191.11 830.535 190.613 830.777 190.316 831.204L156.065 880.443C152.969 884.893 146.098 881.082 148.235 876.1L176.34 810.59C177.205 808.573 179.4 807.475 181.534 807.991L251.447 824.912ZM234.634 792.522C239.956 793.811 238.796 801.69 233.329 801.389L174.818 798.174C174.298 798.145 173.801 798.388 173.504 798.815L139.252 848.055C136.156 852.505 129.285 848.692 131.422 843.71L159.528 778.201C160.393 776.184 162.587 775.085 164.721 775.602L234.634 792.522Z" fill="#70CDDE" stroke="black" stroke-width="3" stroke-linejoin="round" />
<path d="M379.475 728.935C381.953 725.557 387.297 727.101 387.592 731.28L390.202 768.283C390.233 768.719 390.453 769.121 390.804 769.382L420.465 791.393C423.81 793.875 422.278 799.177 418.125 799.493L381.295 802.293C380.859 802.327 380.458 802.549 380.199 802.902L358.257 832.811C355.779 836.188 350.435 834.644 350.14 830.465L347.53 793.463C347.499 793.026 347.279 792.625 346.927 792.364L317.266 770.352C313.922 767.87 315.454 762.568 319.606 762.252L356.436 759.452C356.873 759.419 357.273 759.196 357.532 758.844L379.475 728.935Z" fill="black" stroke="black" stroke-width="3" />
<path d="M377.425 725.22C379.903 721.842 385.247 723.386 385.542 727.565L388.152 764.568C388.183 765.004 388.403 765.406 388.755 765.667L418.416 787.678C421.76 790.16 420.228 795.462 416.075 795.778L379.246 798.579C378.809 798.612 378.409 798.834 378.15 799.187L356.207 829.096C353.729 832.474 348.385 830.93 348.09 826.751L345.48 789.748C345.449 789.311 345.229 788.91 344.878 788.649L315.216 766.638C311.872 764.155 313.404 758.853 317.557 758.537L354.387 755.737C354.823 755.704 355.224 755.482 355.483 755.129L377.425 725.22Z" fill="#ED73C2" stroke="black" stroke-width="3" />
<path d="M308.395 781.483C310.873 778.105 316.217 779.649 316.512 783.828L317.913 803.691C317.944 804.127 318.164 804.529 318.515 804.79L334.464 816.625C337.809 819.107 336.277 824.41 332.124 824.726L312.32 826.231C311.884 826.265 311.484 826.487 311.225 826.84L299.446 842.894C296.968 846.271 291.624 844.727 291.329 840.548L289.928 820.686C289.897 820.25 289.677 819.848 289.325 819.587L273.376 807.752C270.032 805.27 271.564 799.968 275.717 799.652L295.52 798.146C295.957 798.113 296.357 797.89 296.616 797.538L308.395 781.483Z" fill="black" stroke="black" stroke-width="3" />
<path d="M307.1 779.136C309.578 775.758 314.922 777.303 315.217 781.482L316.618 801.344C316.649 801.781 316.869 802.183 317.221 802.443L333.17 814.279C336.515 816.761 334.983 822.063 330.829 822.379L311.026 823.885C310.589 823.918 310.189 824.14 309.93 824.493L298.152 840.547C295.674 843.925 290.329 842.381 290.035 838.202L288.633 818.34C288.602 817.903 288.382 817.502 288.031 817.241L272.082 805.405C268.737 802.923 270.27 797.621 274.422 797.305L294.226 795.8C294.662 795.766 295.063 795.544 295.322 795.191L307.1 779.136Z" fill="#ED73C2" stroke="black" stroke-width="3" />
<path d="M26.209 426.754C28.1378 422.391 34.6397 423.634 34.8224 428.401L35.768 453.077C35.8076 454.102 36.8418 454.786 37.8007 454.421L61.2083 445.51C65.6905 443.805 69.3754 449.359 66.0613 452.826L49.148 470.518C48.4253 471.275 48.679 472.52 49.6398 472.933L72.4459 482.74C76.8743 484.644 75.6137 491.237 70.795 491.372L45.9797 492.073C44.9342 492.102 44.2389 493.166 44.6317 494.135L53.8235 516.82C55.6245 521.265 50.1504 525.068 46.6138 521.829L28.1455 504.91C27.389 504.217 26.1753 504.471 25.7603 505.41L15.7769 527.995C13.8481 532.359 7.34621 531.115 7.16346 526.348L6.21789 501.672C6.17833 500.647 5.14406 499.963 4.18517 500.328L-19.2225 509.239C-23.7046 510.944 -27.3895 505.39 -24.0755 501.924L-7.16216 484.231C-6.4394 483.475 -6.69312 482.229 -7.6539 481.816L-30.46 472.009C-34.8884 470.105 -33.6278 463.513 -28.8092 463.377L-3.99381 462.677C-2.94832 462.647 -2.25305 461.583 -2.64584 460.614L-11.8376 437.929C-13.6387 433.484 -8.16451 429.681 -4.62796 432.92L13.8404 449.839C14.5969 450.532 15.8106 450.278 16.2256 449.34L26.209 426.754Z" fill="black" stroke="black" stroke-width="3" />
<path d="M24.2231 423.005C26.152 418.641 32.6538 419.885 32.8366 424.652L33.7822 449.327C33.8217 450.353 34.856 451.037 35.8149 450.672L59.2225 441.761C63.7047 440.055 67.3895 445.61 64.0755 449.076L47.1622 466.769C46.4394 467.525 46.6932 468.771 47.6539 469.184L70.46 478.991C74.8884 480.895 73.6278 487.487 68.8092 487.623L43.9939 488.323C42.9484 488.353 42.2531 489.417 42.6459 490.386L51.8377 513.071C53.6387 517.516 48.1646 521.319 44.628 518.079L26.1597 501.161C25.4031 500.468 24.1894 500.722 23.7744 501.66L13.7911 524.246C11.8622 528.609 5.36037 527.366 5.17762 522.599L4.23205 497.923C4.19249 496.898 3.15822 496.214 2.19933 496.579L-21.2083 505.489C-25.6905 507.195 -29.3753 501.641 -26.0613 498.174L-9.148 480.482C-8.42524 479.725 -8.67896 478.48 -9.63974 478.067L-32.4458 468.26C-36.8742 466.356 -35.6136 459.763 -30.795 459.627L-5.97965 458.927C-4.93416 458.898 -4.23889 457.834 -4.63168 456.865L-13.8235 434.18C-15.6245 429.735 -10.1504 425.932 -6.6138 429.171L11.8545 446.09C12.6111 446.783 13.8248 446.529 14.2398 445.59L24.2231 423.005Z" fill="#BAA0F6" stroke="black" stroke-width="3" />
</g></svg>