<svg width="128" height="128" viewBox="0 0 128 128" fill="none" xmlns="http://www.w3.org/2000/svg">
<circle cx="65.5" cy="65.5" r="61" fill="black" stroke="black" stroke-width="3"/>
<circle cx="62.5" cy="62.5" r="61" fill="#FFDC02" stroke="black" stroke-width="3"/>
<path d="M108.467 71C108.272 75.985 107.109 80.9054 105.018 85.5283C102.717 90.615 99.3403 95.2465 95.0742 99.1533C90.808 103.06 85.7361 106.165 80.1455 108.286C74.5546 110.407 68.5582 111.5 62.5 111.5C56.4418 111.5 50.4454 110.407 44.8545 108.286C39.2638 106.165 34.192 103.06 29.9258 99.1533C25.6597 95.2465 22.2831 90.615 19.9824 85.5283C17.8915 80.9054 16.7284 75.985 16.5332 71H108.467Z" fill="#FF5052" stroke="black" stroke-width="3"/>
<path d="M92.4424 71.5C92.245 74.1663 91.5239 76.7966 90.2949 79.2852C88.8352 82.2409 86.6864 84.9454 83.9561 87.2354C81.2254 89.5256 77.9702 91.3531 74.3711 92.6035C70.7719 93.8539 66.9072 94.5 63 94.5C59.0928 94.5 55.2281 93.8539 51.6289 92.6035C48.0298 91.3531 44.7746 89.5256 42.0439 87.2354C39.3136 84.9454 37.1648 82.2409 35.7051 79.2852C34.4761 76.7966 33.755 74.1663 33.5576 71.5H92.4424Z" fill="#FFF2E8" stroke="black" stroke-width="3"/>
<path d="M69 58V43H64V28.5H69V13.5283C71.1067 13.6138 72.4749 13.8911 73.7871 14.334C74.6137 14.6129 75.4417 14.9654 76.457 15.415C77.462 15.86 78.641 16.3961 80.1035 17.002C85.6844 19.3137 90.7559 22.7012 95.0273 26.9727L95.8174 27.7832C99.7177 31.8803 102.831 36.6644 104.998 41.8965L105.419 42.9473C107.275 47.7588 108.305 52.8475 108.473 58H69ZM16.5273 58C16.6955 52.8475 17.7254 47.7588 19.5811 42.9473L20.002 41.8965C22.1692 36.6644 25.2823 31.8803 29.1826 27.7832L29.9727 26.9727C33.9773 22.968 38.685 19.74 43.8564 17.4473L44.8965 17.002C46.359 16.3961 47.538 15.86 48.543 15.415C49.5583 14.9654 50.3863 14.6129 51.2129 14.334C52.5251 13.8911 53.8933 13.6138 56 13.5283V28.5H61V43H56V58H16.5273Z" fill="black" stroke="black" stroke-width="3"/>
</svg>
